<?xml version="1.0" encoding="UTF-8"?>
<svg width="80.729mm" height="8.0408mm" version="1.1" viewBox="0 0 80.729 8.0408" xmlns="http://www.w3.org/2000/svg">
 <g transform="translate(-203.93 -330.87)">
  <g stroke-width=".26458" aria-label="TRUE Framework">
   <path d="m209.75 332.1h-2.4184v6.7076h-0.98702v-6.7076h-2.4133v-0.81649h5.8188z"/>
   <path d="m213.63 335.76h-1.7673v3.0437h-0.99736v-7.5241h2.4908q1.2712 0 1.9534 0.57878 0.6873 0.57877 0.6873 1.6846 0 0.7028-0.38241 1.2247-0.37723 0.52193-1.0542 0.78031l1.7673 3.1936v0.062h-1.0645zm-1.7673-0.81132h1.5244q0.40307 0 0.70279-0.10852 0.30489-0.11369 0.50643-0.29972 0.20154-0.19121 0.29972-0.44442 0.10336-0.25838 0.10336-0.55294 0-0.32556-0.0982-0.58911-0.093-0.26871-0.29455-0.45992-0.20154-0.1912-0.5116-0.29455t-0.73897-0.10335h-1.4934z"/>
   <path d="m222.68 331.28v5.0953q0 0.63562-0.22221 1.111t-0.59945 0.79065q-0.37206 0.31522-0.86816 0.47542-0.49609 0.15503-1.0439 0.15503-0.5736 0-1.0697-0.15503-0.49609-0.1602-0.86299-0.47542-0.36173-0.31523-0.57361-0.79065-0.2067-0.47542-0.2067-1.111v-5.0953h0.98185v5.0953q0 0.43925 0.12402 0.76481 0.12919 0.32039 0.35657 0.53743 0.22737 0.21188 0.5426 0.31523 0.32039 0.10335 0.70796 0.10335 0.39274 0 0.71313-0.10335 0.3204-0.10335 0.54777-0.31523 0.22738-0.21704 0.3514-0.53743 0.12403-0.32556 0.12403-0.76481v-5.0953z"/>
   <path d="m228.5 335.33h-3.2608v2.6665h3.7879v0.81132h-4.78v-7.5241h4.7284v0.81649h-3.7362v2.4184h3.2608z"/>
   <path d="m237.03 335.48h-3.1574v3.3228h-0.99219v-7.5241h4.6612v0.81649h-3.669v2.5735h3.1574z"/>
   <path d="m241.15 334.07q-0.12403-0.0207-0.23255-0.0258-0.10335-0.0103-0.23771-0.0103-0.49609 0-0.81131 0.21704-0.31006 0.21704-0.46509 0.58394v3.9687h-0.95601v-5.5914h0.93017l0.0155 0.64595q0.21704-0.34623 0.5426-0.54777 0.32557-0.20154 0.79065-0.20154 0.10335 0 0.23771 0.0258 0.13436 0.0207 0.18604 0.0465z"/>
   <path d="m245.27 338.81q-0.0517-0.10336-0.0827-0.25838-0.031-0.1602-0.0517-0.33073-0.13436 0.13952-0.30489 0.26871-0.16536 0.12403-0.3669 0.22221-0.19637 0.093-0.42891 0.1447-0.23254 0.0568-0.49093 0.0568-0.42891 0-0.78031-0.12919-0.34623-0.12919-0.59427-0.3514-0.24288-0.22221-0.37724-0.52193-0.13436-0.30489-0.13436-0.65112 0-0.44958 0.1757-0.79065 0.1757-0.34623 0.50126-0.57877 0.33073-0.23255 0.79581-0.3514 0.46509-0.11886 1.0387-0.11886h0.95084v-0.43924q0-0.50126-0.29972-0.79582-0.29972-0.29972-0.88367-0.29972-0.26871 0-0.49092 0.0723t-0.38241 0.19637q-0.15502 0.11885-0.24287 0.27905-0.0879 0.16019-0.0879 0.33589h-0.96118q0-0.29972 0.15503-0.59427 0.16019-0.29456 0.44958-0.5271 0.28939-0.23771 0.69763-0.38241 0.41341-0.14986 0.91984-0.14986 0.45475 0 0.83715 0.11886 0.38758 0.11369 0.66146 0.3514 0.27388 0.23254 0.42891 0.58394t0.15503 0.82165v2.5993q0 0.28422 0.0465 0.59944 0.0517 0.31006 0.14986 0.53744v0.0827zm-1.5865-0.72864q0.25838 0 0.48576-0.0723 0.22737-0.0724 0.41341-0.18604 0.18603-0.11885 0.32039-0.26872 0.13953-0.14986 0.21704-0.31005v-1.1472h-0.79581q-0.82166 0-1.2661 0.25838-0.44442 0.25322-0.44442 0.76998 0 0.20154 0.0672 0.37724t0.20154 0.30489q0.13952 0.12402 0.33589 0.20154 0.20154 0.0723 0.46509 0.0723z"/>
   <path d="m248.48 333.22 0.0258 0.62011q0.28939-0.34106 0.69763-0.53227 0.41341-0.1912 0.96118-0.1912 0.5426 0 0.95601 0.21704 0.41858 0.21188 0.64078 0.68213 0.27906-0.40308 0.72347-0.65112 0.44958-0.24805 1.0594-0.24805 0.44959 0 0.79582 0.11886 0.34623 0.11369 0.58394 0.36173 0.24288 0.24805 0.3669 0.63045 0.12403 0.38241 0.12403 0.9095v3.6742h-0.95602v-3.6794q0-0.3514-0.0878-0.58394-0.0827-0.23255-0.23772-0.37207-0.15502-0.13953-0.37723-0.19121-0.22221-0.0568-0.49093-0.0568-0.29455 0-0.52193 0.093-0.22737 0.093-0.39274 0.25321-0.16019 0.15503-0.25838 0.37207-0.093 0.21187-0.11885 0.45475v3.7104h-0.96118v-3.6742q0-0.32556-0.0879-0.55293-0.0827-0.23254-0.23771-0.37724-0.15503-0.14469-0.37724-0.21187-0.21704-0.0672-0.49092-0.0672-0.5116 0-0.82166 0.22221-0.31005 0.22221-0.46508 0.57877v4.0824h-0.95601v-5.5914z"/>
   <path d="m259.17 338.91q-0.58394 0-1.0594-0.20154-0.47025-0.20154-0.80615-0.5581-0.33589-0.36174-0.51676-0.85783-0.18086-0.49609-0.18086-1.0852v-0.21704q0-0.68213 0.20153-1.2196 0.20671-0.53743 0.54777-0.90433 0.34106-0.36691 0.78031-0.55811 0.43925-0.19637 0.91467-0.19637 0.59945 0 1.0335 0.21188 0.43408 0.2067 0.71313 0.5736 0.28422 0.3669 0.41858 0.86816t0.13436 1.0904v0.42892h-3.7879q0.0103 0.38757 0.12402 0.72346 0.11885 0.3359 0.33073 0.58394 0.21704 0.24805 0.51676 0.39274 0.30489 0.1447 0.68729 0.1447 0.50643 0 0.85783-0.20671 0.3514-0.2067 0.61495-0.54777l0.58394 0.45476q-0.13436 0.2067-0.32556 0.40307-0.1912 0.1912-0.44958 0.34623-0.25322 0.14986-0.58395 0.23771-0.33072 0.093-0.7493 0.093zm-0.11886-5.0126q-0.28938 0-0.53226 0.10852-0.24288 0.10335-0.43408 0.30489-0.19121 0.20154-0.3204 0.50126-0.12402 0.29972-0.17053 0.6873h2.8009v-0.0723q-0.0155-0.27905-0.093-0.55294-0.0723-0.27388-0.23254-0.49092-0.15503-0.21704-0.40308-0.3514t-0.61495-0.13436z"/>
   <path d="m267.41 337.49 1.0749-4.2736h0.95601l-1.6278 5.5914h-0.77514l-1.3591-4.2375-1.3229 4.2375h-0.77514l-1.6226-5.5914h0.95084l1.1007 4.1858 1.3022-4.1858h0.76998z"/>
   <path d="m270.16 335.96q0-0.60978 0.1757-1.1265 0.18086-0.52193 0.50642-0.90433 0.33073-0.38241 0.80099-0.59945 0.47025-0.21704 1.0542-0.21704 0.59428 0 1.0645 0.21704 0.47542 0.21704 0.80615 0.59945 0.33073 0.3824 0.50643 0.90433 0.1757 0.51676 0.1757 1.1265v0.11369q0 0.60978-0.1757 1.1317-0.1757 0.51677-0.50643 0.89917-0.33073 0.37724-0.80098 0.59428-0.47025 0.21187-1.0594 0.21187t-1.0594-0.21187q-0.47025-0.21704-0.80098-0.59428-0.33073-0.3824-0.51159-0.89917-0.1757-0.52193-0.1757-1.1317zm0.96118 0.11369q0 0.41858 0.0982 0.79065t0.29455 0.65629q0.20154 0.27905 0.4961 0.44441 0.29972 0.16537 0.69763 0.16537 0.39274 0 0.69246-0.16537 0.29972-0.16536 0.49609-0.44441 0.19637-0.28422 0.29456-0.65629 0.10335-0.37207 0.10335-0.79065v-0.11369q0-0.41341-0.10335-0.78547-0.0982-0.37724-0.29973-0.65629-0.19637-0.28422-0.49609-0.44959-0.29972-0.17053-0.69763-0.17053-0.39274 0-0.68729 0.17053-0.29456 0.16537-0.4961 0.44959-0.19637 0.27905-0.29455 0.65629-0.0982 0.37206-0.0982 0.78547z"/>
   <path d="m279.15 334.07q-0.12402-0.0207-0.23254-0.0258-0.10335-0.0103-0.23771-0.0103-0.4961 0-0.81132 0.21704-0.31006 0.21704-0.46509 0.58394v3.9687h-0.95601v-5.5914h0.93017l0.0155 0.64595q0.21704-0.34623 0.5426-0.54777t0.79065-0.20154q0.10335 0 0.23771 0.0258 0.13435 0.0207 0.18603 0.0465z"/>
   <path d="m281.59 336.22-0.59944 0.62528v1.9637h-0.95601v-7.9375h0.95601v4.8007l0.51159-0.61495 1.7415-1.8397h1.1627l-2.1756 2.3358 2.4288 3.2556h-1.1214z"/>
  </g>
 </g>
</svg>
